<svg xmlns="http://www.w3.org/2000/svg" xmlns:xlink="http://www.w3.org/1999/xlink" width="500" zoomAndPan="magnify" viewBox="0 0 375 374.999991" height="500" preserveAspectRatio="xMidYMid meet" version="1.0"><path fill="#ffffff" d="M 250.847656 189.617188 L 357.714844 82.714844 C 375.195312 65.234375 375.195312 36.847656 357.714844 19.367188 C 340.234375 1.886719 311.882812 1.886719 294.402344 19.367188 L 187.5 126.269531 L 80.632812 19.367188 C 63.117188 1.886719 34.796875 1.886719 17.285156 19.367188 C -0.195312 36.847656 -0.195312 65.203125 17.285156 82.683594 L 124.152344 189.582031 L 17.285156 296.484375 C -0.195312 313.964844 -0.195312 342.316406 17.285156 359.796875 C 26.042969 368.523438 37.5 372.917969 48.957031 372.917969 C 60.417969 372.917969 71.875 368.523438 80.632812 359.796875 L 187.5 252.898438 L 294.402344 359.796875 C 303.15625 368.523438 314.617188 372.917969 326.074219 372.917969 C 337.53125 372.917969 348.992188 368.523438 357.714844 359.796875 C 375.195312 342.316406 375.195312 313.964844 357.714844 296.484375 L 250.847656 189.617188 " fill-opacity="1" fill-rule="nonzero"/></svg>