<svg xmlns="http://www.w3.org/2000/svg" xmlns:xlink="http://www.w3.org/1999/xlink" width="500" zoomAndPan="magnify" viewBox="0 0 375 374.999991" height="500" preserveAspectRatio="xMidYMid meet" version="1.0"><defs><clipPath id="b89723e073"><path d="M 0 37.265625 L 297 37.265625 L 297 98 L 0 98 Z M 0 37.265625 " clip-rule="nonzero"/></clipPath><clipPath id="b279db13c7"><path d="M 0.496094 157 L 374.519531 157 L 374.519531 218 L 0.496094 218 Z M 0.496094 157 " clip-rule="nonzero"/></clipPath><clipPath id="1fb1d05fbc"><path d="M 0.496094 277 L 233 277 L 233 337.265625 L 0.496094 337.265625 Z M 0.496094 277 " clip-rule="nonzero"/></clipPath></defs><g clip-path="url(#b89723e073)"><path fill="#ffffff" d="M 266.003906 97.277344 L 30.550781 97.277344 C 13.949219 97.277344 0.496094 83.84375 0.496094 67.269531 C 0.496094 50.703125 13.949219 37.269531 30.550781 37.269531 L 266.003906 37.269531 C 282.601562 37.269531 296.054688 50.703125 296.054688 67.269531 C 296.054688 83.84375 282.601562 97.277344 266.003906 97.277344 " fill-opacity="1" fill-rule="nonzero"/></g><g clip-path="url(#b279db13c7)"><path fill="#ffffff" d="M 344.460938 217.300781 L 30.550781 217.300781 C 13.949219 217.300781 0.496094 203.867188 0.496094 187.292969 C 0.496094 170.71875 13.949219 157.289062 30.550781 157.289062 L 344.460938 157.289062 C 361.0625 157.289062 374.515625 170.71875 374.515625 187.292969 C 374.515625 203.867188 361.0625 217.300781 344.460938 217.300781 " fill-opacity="1" fill-rule="nonzero"/></g><g clip-path="url(#1fb1d05fbc)"><path fill="#ffffff" d="M 202.636719 337.324219 L 30.550781 337.324219 C 13.949219 337.324219 0.496094 323.890625 0.496094 307.316406 C 0.496094 290.742188 13.949219 277.3125 30.550781 277.3125 L 202.636719 277.3125 C 219.234375 277.3125 232.6875 290.742188 232.6875 307.316406 C 232.6875 323.890625 219.234375 337.324219 202.636719 337.324219 " fill-opacity="1" fill-rule="nonzero"/></g></svg>